<svg xmlns="http://www.w3.org/2000/svg" width="94px" height="80px" viewBox="0 0 94 80">
<path fill="#f8485e" d="M5.03,41.41c-0.39,0-0.77-0.22-0.95-0.6C1.74,35.82,0.4,30.78,0.07,25.83L0.05,25.5
C0.02,24.99,0,24.47,0,23.98C0,10.88,10.78,0.23,24.02,0.23c15.39,0,20.86,9.63,22.91,13.25c0.02,0.04,0.04,0.07,0.06,0.11
c0.02-0.04,0.04-0.07,0.06-0.11c2.06-3.63,7.53-13.25,22.91-13.25C83.22,0.23,94,10.88,94,23.98c0,0.5-0.02,1-0.05,1.53
c0,0.01,0,0.03,0,0.04c-0.01,0.09-0.01,0.2-0.02,0.3c-0.31,4.81-1.61,9.72-3.83,14.59c-0.24,0.53-0.86,0.76-1.39,0.52
c-0.53-0.24-0.76-0.86-0.52-1.39c2.12-4.63,3.35-9.3,3.65-13.87c0.01-0.1,0.01-0.19,0.02-0.27c0-0.01,0-0.04,0-0.05
c0.03-0.48,0.05-0.94,0.05-1.39c0-11.94-9.84-21.66-21.93-21.66c-14.17,0-19.2,8.86-21.09,12.19c-0.72,1.26-1.07,1.89-1.88,1.89
s-1.17-0.63-1.88-1.89c-1.89-3.33-6.92-12.19-21.09-12.19c-12.09,0-21.93,9.72-21.93,21.66c0,0.45,0.02,0.91,0.05,1.4l0.02,0.3
c0.31,4.7,1.59,9.49,3.82,14.24c0.25,0.52,0.02,1.15-0.5,1.39C5.33,41.38,5.18,41.41,5.03,41.41z"/>
<path fill="#f8485e" d="M47,79.77c-1.87,0-8.59-3.65-14.97-8.13c-6.37-4.48-15.42-11.82-22.34-21.4c-0.34-0.47-0.23-1.12,0.24-1.46
c0.47-0.34,1.12-0.23,1.46,0.24c6.71,9.29,15.51,16.45,21.7,20.81c7.66,5.4,13.06,7.8,13.92,7.85c0.84-0.05,6.24-2.45,13.89-7.84
c6.19-4.36,14.97-11.51,21.69-20.78c0.34-0.47,0.99-0.57,1.46-0.23c0.47,0.34,0.57,0.99,0.23,1.46
c-6.92,9.57-15.96,16.9-22.32,21.37C55.58,76.13,48.87,79.77,47,79.77z"/>
<path fill="#f8485e" d="M51.8,55.27c-0.46,0-0.87-0.3-1-0.75l-4.1-13.68l-3.85,6.64c-0.21,0.37-0.63,0.57-1.05,0.51
c-0.42-0.06-0.77-0.37-0.87-0.78l-3.8-15.27L29.07,52.1c-0.18,0.44-0.62,0.7-1.09,0.65c-0.47-0.05-0.84-0.41-0.92-0.88L23.1,26.27
l-5.67,18.91c-0.13,0.44-0.54,0.75-1,0.75H2.16c-0.58,0-1.05-0.47-1.05-1.05c0-0.58,0.47-1.05,1.05-1.05h13.49l6.78-22.6
c0.14-0.47,0.58-0.78,1.08-0.74c0.49,0.03,0.89,0.4,0.96,0.88l4.08,26.39l7.83-19.62c0.17-0.42,0.59-0.69,1.04-0.66
c0.45,0.03,0.84,0.35,0.95,0.79l3.96,15.91l3.76-6.5c0.21-0.36,0.61-0.56,1.03-0.52c0.41,0.05,0.76,0.34,0.88,0.74l3.63,12.11
l3.72-17.14c0.1-0.47,0.51-0.81,0.99-0.82c0.48-0.01,0.91,0.3,1.04,0.77l3.88,13.9l6.12-11.6c0.18-0.35,0.54-0.57,0.94-0.56
c0.39,0.01,0.75,0.23,0.92,0.59l4.3,8.75h17.94c0.58,0,1.05,0.47,1.05,1.05s-0.47,1.05-1.05,1.05H72.9c-0.4,0-0.76-0.23-0.94-0.59
l-3.68-7.49l-6.39,12.1c-0.2,0.38-0.61,0.6-1.04,0.55c-0.43-0.05-0.78-0.35-0.9-0.76l-3.45-12.36l-3.69,16.97
c-0.1,0.47-0.51,0.81-0.98,0.82C51.82,55.27,51.81,55.27,51.8,55.27z"/>
</svg>
