<svg xmlns="http://www.w3.org/2000/svg" width="120px" height="120px" viewBox="0 0 120 120">
<path fill="#00B388" d="M60,3.5c31.154,0,56.5,25.346,56.5,56.5S91.154,116.5,60,116.5S3.5,91.154,3.5,60S28.846,3.5,60,3.5 M60,0
C26.865,0,0,26.865,0,60c0,33.134,26.865,60,60,60c33.134,0,60-26.866,60-60C120,26.865,93.134,0,60,0L60,0z"/>
<path fill-rule="evenodd" clip-rule="evenodd" fill="#00B388" d="M90.986,36.663c-1.045-1.031-2.74-1.031-3.781,0L49.413,74.211
L32.792,57.825c-1.041-1.031-2.733-1.031-3.773,0c-1.041,1.032-1.041,2.71,0,3.747l18.513,18.244c1.028,1.018,2.748,1.018,3.776,0
l39.679-39.414C92.03,39.374,92.03,37.7,90.986,36.663C89.941,35.632,92.03,37.7,90.986,36.663z"/>
</svg>
