<svg xmlns="http://www.w3.org/2000/svg" width="72px" height="72px" viewBox="0 0 72 72">
<path fill="#F8485E" d="M20.22,72.08c-0.31,0-0.63-0.03-0.94-0.09c-1.33-0.25-2.48-0.99-3.25-2.08c-0.77-1.11-1.07-2.44-0.82-3.76
L18.55,48c0.08-0.41,0.32-0.78,0.68-1l14.29-8.93l-2.63-5.86c-5.25,2.81-6.07,2.87-6.53,2.91c-0.56,0.04-2.3,0.18-12.78-9.18
c-0.98-0.76-1.65-1.95-1.81-3.27c-0.16-1.33,0.2-2.63,1.03-3.69s2.01-1.72,3.33-1.88c1.33-0.16,2.63,0.2,3.69,1.03
c0.04,0.03,0.08,0.06,0.11,0.1c2.77,2.65,6.27,5.65,7.51,6.29c0.65-0.37,2.05-1.33,3.21-2.13c5.47-3.77,9.85-6.62,12.48-6.38
c3.76,0.36,11.66,3.18,13.84,4.94c2.2,1.77,3.76,10.92,4.33,14.78c0,0.01,0,0.01,0,0.02c0.12,0.43,0.17,0.85,0.17,1.25
c0,2.76-2.24,5-5,5c-2.41,0-4.43-1.68-4.89-4.03c-0.02-0.07-0.04-0.13-0.05-0.21c-0.51-3.08-1.39-6.79-1.92-7.69
c-0.17-0.08-0.68-0.27-1.97-0.49l0.69,12.7L50.13,50l14.33,0.75c1.34,0.07,2.57,0.67,3.47,1.68c0.89,1,1.34,2.3,1.27,3.65
c-0.15,2.79-2.51,4.96-5.27,4.8L45.5,59.91c-0.42-0.02-0.81-0.22-1.08-0.54l-7.15-8.68l-9.5,3.2l-2.6,14.11
c-0.24,1.32-0.99,2.46-2.11,3.22C22.21,71.79,21.23,72.08,20.22,72.08z M21.38,49.2l-3.23,17.5c-0.1,0.52,0.02,1.06,0.33,1.5
c0.31,0.45,0.79,0.75,1.34,0.85c0.55,0.1,1.1-0.01,1.55-0.32c0.45-0.3,0.75-0.76,0.84-1.28l2.76-14.98c0.1-0.54,0.48-0.98,1-1.15
l11.32-3.81c0.59-0.2,1.24-0.01,1.64,0.47l7.38,8.97l17.77,0.93c1.09,0.06,2.05-0.82,2.11-1.96c0.03-0.56-0.16-1.09-0.52-1.5
c-0.36-0.4-0.85-0.64-1.38-0.67l0,0L49.1,52.95c-0.54-0.03-1.03-0.35-1.27-0.84l-4.3-8.79c-0.09-0.18-0.14-0.38-0.15-0.58
l-0.8-14.81c-0.02-0.44,0.15-0.87,0.47-1.17c0.32-0.3,0.76-0.45,1.2-0.4c3.94,0.45,5.13,1.04,5.71,1.78
c1.19,1.55,2.2,6.99,2.53,8.93c0.02,0.07,0.04,0.15,0.05,0.22C52.68,38.28,53.51,39,54.5,39c1.1,0,2-0.9,2-2
c0-0.17-0.03-0.36-0.11-0.6c-0.05-0.15-0.07-0.3-0.07-0.46c-0.82-5.44-2.3-11.77-3.23-12.67c-1.62-1.3-8.84-3.96-12.24-4.28
c-1.7-0.16-7.65,3.9-10.49,5.86c-2.87,1.98-3.81,2.61-4.58,2.73c-0.62,0.09-2.07,0.31-9.86-7.13c-0.41-0.3-0.91-0.43-1.42-0.37
c-0.53,0.06-1,0.33-1.33,0.75c-0.68,0.87-0.53,2.13,0.34,2.81c4.2,3.75,9.34,7.91,10.74,8.46c0.39-0.12,1.88-0.69,6.63-3.29
c0.37-0.2,0.8-0.24,1.2-0.11c0.4,0.13,0.72,0.43,0.89,0.81l3.83,8.52c0.31,0.68,0.06,1.49-0.57,1.89L21.38,49.2z M47.71,30.11
L47.71,30.11L47.71,30.11z"/>
<path fill="#F8485E" d="M32,17c-4.69,0-8.5-3.81-8.5-8.5S27.31,0,32,0s8.5,3.81,8.5,8.5S36.69,17,32,17z M32,3
c-3.03,0-5.5,2.47-5.5,5.5S28.97,14,32,14s5.5-2.47,5.5-5.5S35.03,3,32,3z"/>
</svg>
