<svg xmlns="http://www.w3.org/2000/svg" width="72px" height="72px" viewBox="0 0 72 72">
<path fill="#F8485E" d="M40.95,20.5V9.9h0.899c0.746,0,1.351-0.604,1.351-1.35v-7.2C43.2,0.604,42.596,0,41.85,0h-11.7
c-0.745,0-1.35,0.604-1.35,1.35v7.2c0,0.746,0.605,1.35,1.35,1.35h0.9V20.5c-7.441,2.132-12.775,8.957-13.026,16.731
C18.02,37.272,18,37.308,18,37.35v0.45v25.65v7.2c0,0.745,0.604,1.35,1.35,1.35h33.3c0.745,0,1.35-0.604,1.35-1.35V37.8
C54,29.792,48.573,22.685,40.95,20.5z M31.5,2.7h9v4.5h-0.9h-7.2h-0.9V2.7z M32.691,22.869c0.619-0.136,1.059-0.685,1.059-1.318V9.9
h4.5v11.651c0,0.634,0.441,1.182,1.059,1.318C46.257,24.403,51.3,30.682,51.3,37.8v7.622H37.35V37.35c0-0.745-0.604-1.35-1.35-1.35
H20.821C21.588,29.647,26.336,24.272,32.691,22.869z M20.7,38.7h13.95V62.1H20.7V38.7z M20.7,69.3v-4.5H36
c0.745,0,1.35-0.604,1.35-1.35V48.122H51.3V69.3H20.7z"/>
</svg>
