<svg xmlns="http://www.w3.org/2000/svg" width="72px" height="72px" viewBox="0 0 72 72">
<path fill="#F8485E" d="M72,48.55c0-0.02,0-0.04,0-0.05c0-0.03-0.01-0.06-0.01-0.09c0-0.05-0.01-0.11-0.02-0.16
c-0.01-0.05-0.02-0.1-0.04-0.15c-0.01-0.03-0.01-0.06-0.02-0.09l-14-40c0,0,0,0,0-0.01c-0.05-0.13-0.12-0.25-0.2-0.36
c-0.02-0.02-0.03-0.05-0.05-0.07c-0.08-0.1-0.18-0.2-0.29-0.28c-0.01-0.01-0.03-0.02-0.05-0.03c-0.1-0.07-0.21-0.12-0.33-0.16
c-0.03-0.01-0.05-0.02-0.08-0.03C56.8,7.03,56.67,7.01,56.53,7c-0.01,0-0.02,0-0.03,0c-0.02,0-0.04,0.01-0.05,0.01
c-0.05,0-0.11,0-0.16,0.01L37.5,9.76V6c0-0.83-0.67-1.5-1.5-1.5S34.5,5.17,34.5,6v4.2l-19.22,2.81c-0.07,0.01-0.13,0.03-0.2,0.05
c-0.02,0.01-0.04,0.01-0.06,0.02c-0.13,0.04-0.25,0.11-0.36,0.18c-0.02,0.02-0.04,0.03-0.07,0.05c-0.1,0.08-0.2,0.17-0.28,0.27
c0,0.01-0.01,0.01-0.02,0.02c-0.08,0.11-0.15,0.23-0.2,0.36c-0.01,0.02-0.02,0.03-0.02,0.04l-14,40c-0.01,0.03-0.01,0.06-0.02,0.09
c-0.01,0.05-0.03,0.1-0.04,0.15c-0.01,0.05-0.01,0.11-0.02,0.16C0.01,54.44,0,54.47,0,54.5c0,0.02,0,0.04,0,0.05
c0,0.03,0,0.06,0.01,0.09C0.12,60.46,6.88,65,15.5,65s15.38-4.54,15.49-10.36c0-0.03,0.01-0.06,0.01-0.09c0-0.02,0-0.04,0-0.05
c0-0.03-0.01-0.06-0.01-0.09c0-0.05-0.01-0.11-0.02-0.16c-0.01-0.05-0.02-0.1-0.04-0.15c-0.01-0.03-0.01-0.06-0.02-0.09l-13.4-38.28
l16.98-2.49V66c0,0.83,0.67,1.5,1.5,1.5s1.5-0.67,1.5-1.5V12.8l16.77-2.45L41.08,48c-0.01,0.03-0.01,0.06-0.02,0.09
c-0.01,0.05-0.03,0.1-0.04,0.15c-0.01,0.05-0.01,0.11-0.02,0.16c0,0.03-0.01,0.06-0.01,0.09c0,0.02,0,0.04,0,0.05
c0,0.03,0,0.06,0.01,0.09C41.12,54.46,47.88,59,56.5,59s15.38-4.54,15.49-10.36C71.99,48.61,71.99,48.58,72,48.55z M15.5,19.04
L27.39,53H3.61L15.5,19.04z M15.5,62c-5.92,0-11.04-2.62-12.24-6h24.47C26.54,59.38,21.42,62,15.5,62z M68.39,47H44.61L56.5,13.04
L68.39,47z M56.5,56c-5.92,0-11.04-2.62-12.24-6h24.47C67.54,53.38,62.42,56,56.5,56z"/>
</svg>
