<svg xmlns="http://www.w3.org/2000/svg" width="72px" height="72px" viewBox="0 0 72 72">
<path fill="#F8485E" d="M36,72C16.15,72,0,55.85,0,36S16.15,0,36,0s36,16.15,36,36S55.85,72,36,72z M36,3C17.8,3,3,17.8,3,36
s14.8,33,33,33s33-14.8,33-33S54.2,3,36,3z"/>
<path fill="#F8485E" d="M36,12.5c-0.83,0-1.5-0.67-1.5-1.5V7c0-0.83,0.67-1.5,1.5-1.5s1.5,0.67,1.5,1.5v4
C37.5,11.83,36.83,12.5,36,12.5z"/>
<path fill="#F8485E" d="M65,37.5h-4c-0.83,0-1.5-0.67-1.5-1.5s0.67-1.5,1.5-1.5h4c0.83,0,1.5,0.67,1.5,1.5S65.83,37.5,65,37.5z"/>
<path fill="#F8485E" d="M11,37.5H7c-0.83,0-1.5-0.67-1.5-1.5s0.67-1.5,1.5-1.5h4c0.83,0,1.5,0.67,1.5,1.5S11.83,37.5,11,37.5z"/>
<path fill="#F8485E" d="M59.1,27.93c-0.59,0-1.15-0.35-1.39-0.93c-0.32-0.77,0.05-1.64,0.81-1.96l3.7-1.53
c0.77-0.32,1.64,0.05,1.96,0.81c0.32,0.77-0.05,1.64-0.81,1.96l-3.7,1.53C59.48,27.9,59.29,27.93,59.1,27.93z"/>
<path fill="#F8485E" d="M9.21,48.6c-0.59,0-1.15-0.35-1.39-0.93c-0.32-0.77,0.05-1.64,0.81-1.96l3.7-1.53
c0.76-0.32,1.64,0.05,1.96,0.81c0.32,0.77-0.05,1.64-0.81,1.96l-3.7,1.53C9.59,48.56,9.4,48.6,9.21,48.6z"/>
<path fill="#F8485E" d="M53.68,19.82c-0.38,0-0.77-0.15-1.06-0.44c-0.59-0.59-0.59-1.54,0-2.12l2.83-2.83
c0.59-0.59,1.54-0.59,2.12,0c0.59,0.59,0.59,1.54,0,2.12l-2.83,2.83C54.45,19.68,54.06,19.82,53.68,19.82z"/>
<path fill="#F8485E" d="M15.49,58.01c-0.38,0-0.77-0.15-1.06-0.44c-0.59-0.59-0.59-1.54,0-2.12l2.83-2.83
c0.59-0.59,1.54-0.59,2.12,0s0.59,1.54,0,2.12l-2.83,2.83C16.26,57.86,15.88,58.01,15.49,58.01z"/>
<path fill="#F8485E" d="M24.9,64.29c-0.19,0-0.39-0.04-0.57-0.11c-0.77-0.32-1.13-1.19-0.81-1.96l1.53-3.7
c0.32-0.77,1.19-1.13,1.96-0.81c0.77,0.32,1.13,1.19,0.81,1.96l-1.53,3.7C26.05,63.94,25.49,64.29,24.9,64.29z"/>
<path fill="#F8485E" d="M12.9,27.93c-0.19,0-0.39-0.04-0.57-0.11l-3.7-1.53c-0.77-0.32-1.13-1.19-0.81-1.96s1.19-1.13,1.96-0.81
l3.7,1.53c0.77,0.32,1.13,1.19,0.81,1.96C14.05,27.58,13.49,27.93,12.9,27.93z"/>
<path fill="#F8485E" d="M62.79,48.6c-0.19,0-0.38-0.04-0.57-0.11l-3.7-1.53c-0.76-0.32-1.13-1.19-0.81-1.96
c0.32-0.76,1.19-1.13,1.96-0.81l3.7,1.53c0.76,0.32,1.13,1.19,0.81,1.96C63.94,48.25,63.38,48.6,62.79,48.6z"/>
<path fill="#F8485E" d="M18.32,19.82c-0.38,0-0.77-0.15-1.06-0.44l-2.83-2.83c-0.59-0.59-0.59-1.54,0-2.12
c0.59-0.59,1.54-0.59,2.12,0l2.83,2.83c0.59,0.59,0.59,1.54,0,2.12C19.09,19.68,18.71,19.82,18.32,19.82z"/>
<path fill="#F8485E" d="M56.51,58.01c-0.38,0-0.77-0.15-1.06-0.44l-2.83-2.83c-0.59-0.59-0.59-1.54,0-2.12s1.54-0.59,2.12,0
l2.83,2.83c0.59,0.59,0.59,1.54,0,2.12C57.27,57.86,56.89,58.01,56.51,58.01z"/>
<path fill="#F8485E" d="M26.43,14.4c-0.59,0-1.15-0.35-1.39-0.93l-1.53-3.7c-0.32-0.77,0.05-1.64,0.81-1.96
c0.77-0.32,1.64,0.05,1.96,0.81l1.53,3.7c0.32,0.77-0.05,1.64-0.81,1.96C26.82,14.37,26.62,14.4,26.43,14.4z"/>
<path fill="#F8485E" d="M47.1,64.29c-0.59,0-1.15-0.35-1.39-0.93l-1.53-3.7c-0.32-0.77,0.05-1.64,0.81-1.96
c0.77-0.32,1.64,0.05,1.96,0.81l1.53,3.7c0.32,0.77-0.05,1.64-0.81,1.96C47.48,64.26,47.29,64.29,47.1,64.29z"/>
<path fill="#F8485E" d="M32.59,45.83c-0.19,0-0.39-0.04-0.57-0.11c-0.77-0.32-1.13-1.19-0.81-1.96l1.42-3.42
c-0.73-0.58-1.3-1.33-1.67-2.21c-0.56-1.36-0.56-2.85,0-4.21c0.96-2.32,3.34-3.64,5.72-3.36l8.31-20.06
c0.32-0.77,1.19-1.13,1.96-0.81c0.77,0.32,1.13,1.19,0.81,1.96L39.45,31.7c0.73,0.58,1.3,1.33,1.67,2.21c0.56,1.36,0.56,2.85,0,4.21
c-0.56,1.36-1.62,2.41-2.98,2.98c-0.88,0.36-1.82,0.49-2.74,0.38l-1.42,3.42C33.74,45.48,33.18,45.83,32.59,45.83z M36.04,33.52
c-0.98,0-1.92,0.58-2.31,1.54c-0.26,0.62-0.26,1.3,0,1.91c0.26,0.62,0.74,1.1,1.35,1.35c0.62,0.26,1.3,0.26,1.91,0
c0.62-0.25,1.1-0.74,1.35-1.35v0c0.26-0.62,0.26-1.3,0-1.91c-0.25-0.62-0.73-1.1-1.35-1.35c0,0,0,0,0,0
C36.68,33.58,36.36,33.52,36.04,33.52z"/>
</svg>
