<svg xmlns="http://www.w3.org/2000/svg" width="72px" height="72px" viewBox="0 0 72 72">
<path fill="#F8485E" d="M59.5,25c0-5.24-4.26-9.5-9.5-9.5h-9.5v-14C40.5,0.67,39.83,0,39,0h-6c-0.83,0-1.5,0.67-1.5,1.5v14H22
c-5.24,0-9.5,4.26-9.5,9.5v30c0,0.05,0,0.11,0.01,0.16c0,0.11-0.01,0.22-0.01,0.34C12.5,64.6,23.04,72,36,72s23.5-7.4,23.5-16.5
c0-0.11,0-0.22-0.01-0.34c0.01-0.05,0.01-0.11,0.01-0.16V25z M34.5,3h3v12.5h-3V3z M56.5,54.76c-0.02,0.1-0.02,0.2-0.02,0.31l0,0.11
c0.01,0.11,0.01,0.21,0.01,0.32C56.5,62.94,47.3,69,36,69s-20.5-6.06-20.5-13.5c0-0.11,0.01-0.21,0.01-0.32l0.01-0.11
c0-0.1,0-0.2-0.02-0.3V25c0-3.58,2.92-6.5,6.5-6.5h11h6h11c3.58,0,6.5,2.92,6.5,6.5V54.76z"/>
<path fill="#F8485E" d="M36,51.5c-3.58,0-6.5,2.92-6.5,6.5s2.92,6.5,6.5,6.5s6.5-2.92,6.5-6.5S39.58,51.5,36,51.5z M36,61.5
c-1.93,0-3.5-1.57-3.5-3.5s1.57-3.5,3.5-3.5s3.5,1.57,3.5,3.5S37.93,61.5,36,61.5z"/>
<path fill="#F8485E" d="M49,22.5H23c-2.48,0-4.5,2.02-4.5,4.5v16c0,2.48,2.02,4.5,4.5,4.5h26c2.48,0,4.5-2.02,4.5-4.5V27
C53.5,24.52,51.48,22.5,49,22.5z M50.5,43c0,0.83-0.67,1.5-1.5,1.5H23c-0.83,0-1.5-0.67-1.5-1.5V27c0-0.83,0.67-1.5,1.5-1.5h26
c0.83,0,1.5,0.67,1.5,1.5V43z"/>
</svg>
