<svg xmlns="http://www.w3.org/2000/svg" width="72px" height="72px" viewBox="0 0 72 72">
<path fill="#F8485E" d="M70.2,18c-0.021,0-0.037,0.011-0.059,0.011c0.308-0.981,0.509-2.029,0.509-3.161
c0-5.184-7.688-8.916-8.494-9.289C61.734,5.334,51.648,0,36,0C20.306,0,10.262,5.336,9.914,5.526C9.038,5.935,1.35,9.666,1.35,14.85
c0,1.132,0.2,2.18,0.508,3.161C1.837,18.011,1.82,18,1.8,18C0.806,18,0,18.806,0,19.8c0,0.995,0.806,1.8,1.8,1.8
c0.624,0,1.145-0.336,1.468-0.816c1.629,2.167,4.166,3.516,7.217,3.516c1.938,0,3.819-0.732,6.201-1.658
C20.742,21.062,26.299,18.9,36,18.9c9.69,0,15.238,2.16,19.29,3.736c2.389,0.93,4.275,1.664,6.227,1.664
c3.05,0,5.588-1.349,7.216-3.516c0.323,0.48,0.846,0.816,1.468,0.816c0.995,0,1.8-0.805,1.8-1.8C72,18.806,71.195,18,70.2,18z
M61.517,21.6c-1.445,0-3.122-0.653-5.247-1.48c-2.155-0.839-4.717-1.833-8.044-2.611c-0.065-1.566-0.406-4.648-2.009-7.342
c-0.384-0.639-1.21-0.855-1.852-0.47c-0.64,0.381-0.851,1.209-0.469,1.85c1.1,1.85,1.468,4.012,1.589,5.411
c-2.118-0.362-4.515-0.622-7.251-0.716c-0.094-1.632-0.477-4.513-1.994-7.062c-0.381-0.643-1.211-0.851-1.85-0.47
c-0.641,0.381-0.852,1.209-0.47,1.85c1.169,1.964,1.508,4.267,1.606,5.648c-3.448,0.024-6.389,0.307-8.933,0.736
c-0.123-1.673-0.549-4.377-1.977-6.777c-0.381-0.643-1.211-0.852-1.85-0.47c-0.641,0.381-0.852,1.209-0.47,1.85
c1.254,2.108,1.553,4.604,1.623,5.929c-3.407,0.784-6.021,1.797-8.212,2.65c-2.118,0.824-3.791,1.475-5.222,1.475
c-3.789,0-6.435-2.776-6.435-6.75c0-2.938,5.188-6.027,7.077-6.913C11.224,7.885,20.983,2.7,36,2.7
c14.928,0,24.78,5.187,24.947,5.273c1.815,0.847,7.003,3.928,7.003,6.876C67.95,18.824,65.305,21.6,61.517,21.6z"/>
<path fill="#F8485E" d="M70.2,41.85c-0.021,0-0.037,0.011-0.059,0.013c0.308-0.982,0.509-2.03,0.509-3.162
c0-5.184-7.688-8.916-8.494-9.289C61.734,29.184,51.648,23.85,36,23.85c-15.694,0-25.738,5.336-26.086,5.526
C9.038,29.784,1.35,33.516,1.35,38.7c0,1.132,0.2,2.18,0.508,3.162C1.837,41.86,1.82,41.85,1.8,41.85c-0.994,0-1.8,0.806-1.8,1.801
c0,0.994,0.806,1.8,1.8,1.8c0.624,0,1.145-0.336,1.468-0.815c1.629,2.167,4.166,3.516,7.217,3.516c1.938,0,3.819-0.731,6.201-1.66
c4.057-1.578,9.614-3.74,19.315-3.74c9.69,0,15.238,2.158,19.29,3.735c2.389,0.93,4.275,1.665,6.227,1.665
c3.05,0,5.588-1.349,7.216-3.516c0.323,0.479,0.846,0.815,1.468,0.815c0.995,0,1.8-0.806,1.8-1.8C72,42.655,71.195,41.85,70.2,41.85
z M61.517,45.45c-1.445,0-3.122-0.654-5.247-1.48c-2.155-0.838-4.717-1.833-8.042-2.61c-0.067-1.566-0.408-4.648-2.011-7.343
c-0.384-0.641-1.21-0.855-1.852-0.47c-0.64,0.382-0.851,1.209-0.469,1.85c1.1,1.85,1.468,4.012,1.589,5.412
c-2.118-0.362-4.515-0.622-7.251-0.716c-0.094-1.633-0.477-4.514-1.994-7.063c-0.381-0.643-1.211-0.851-1.85-0.47
c-0.641,0.381-0.852,1.209-0.47,1.85c1.169,1.964,1.508,4.268,1.606,5.647c-3.448,0.025-6.389,0.308-8.933,0.737
c-0.123-1.672-0.549-4.377-1.977-6.778c-0.381-0.642-1.211-0.852-1.85-0.47c-0.641,0.382-0.852,1.209-0.47,1.85
c1.254,2.109,1.553,4.605,1.623,5.93c-3.407,0.784-6.021,1.797-8.212,2.649c-2.118,0.824-3.791,1.475-5.222,1.475
c-3.789,0-6.435-2.775-6.435-6.75c0-2.938,5.188-6.027,7.077-6.913C11.224,31.735,20.983,26.55,36,26.55
c14.928,0,24.78,5.188,24.947,5.273c1.815,0.848,7.003,3.928,7.003,6.877C67.95,42.675,65.305,45.45,61.517,45.45z"/>
<path fill="#F8485E" d="M70.2,65.7c-0.021,0-0.037,0.011-0.059,0.012c0.308-0.982,0.509-2.03,0.509-3.162
c0-5.182-7.688-8.915-8.494-9.288C61.734,53.035,51.648,47.7,36,47.7c-15.694,0-25.738,5.335-26.086,5.526
C9.038,53.635,1.35,57.368,1.35,62.55c0,1.132,0.2,2.18,0.508,3.162C1.837,65.711,1.82,65.7,1.8,65.7c-0.994,0-1.8,0.805-1.8,1.8
s0.806,1.8,1.8,1.8c0.624,0,1.145-0.336,1.468-0.815C4.896,70.651,7.434,72,10.484,72c1.938,0,3.819-0.731,6.201-1.659
C20.742,68.762,26.299,66.6,36,66.6c9.69,0,15.238,2.159,19.29,3.735C57.679,71.266,59.565,72,61.517,72
c3.05,0,5.588-1.349,7.216-3.516c0.323,0.479,0.846,0.815,1.468,0.815c0.995,0,1.8-0.805,1.8-1.8S71.195,65.7,70.2,65.7z
M61.517,69.3c-1.445,0-3.122-0.653-5.247-1.479c-2.155-0.839-4.717-1.834-8.044-2.61c-0.065-1.566-0.406-4.648-2.009-7.345
c-0.384-0.638-1.21-0.851-1.852-0.469c-0.64,0.381-0.851,1.209-0.469,1.851c1.1,1.85,1.468,4.012,1.589,5.41
c-2.118-0.361-4.515-0.622-7.251-0.715c-0.094-1.633-0.477-4.515-1.994-7.064c-0.381-0.641-1.211-0.85-1.85-0.47
c-0.641,0.382-0.852,1.209-0.47,1.851c1.169,1.964,1.508,4.269,1.606,5.648c-3.448,0.024-6.389,0.308-8.933,0.736
c-0.123-1.672-0.549-4.377-1.977-6.778c-0.381-0.64-1.211-0.849-1.85-0.469c-0.641,0.381-0.852,1.209-0.47,1.851
c1.254,2.107,1.553,4.604,1.623,5.929c-3.407,0.784-6.021,1.797-8.212,2.649c-2.118,0.824-3.791,1.475-5.222,1.475
c-3.789,0-6.435-2.775-6.435-6.75c0-2.938,5.188-6.025,7.077-6.911C11.224,55.586,20.983,50.4,36,50.4
c14.928,0,24.78,5.187,24.945,5.273c1.817,0.851,7.005,3.938,7.005,6.876C67.95,66.524,65.305,69.3,61.517,69.3z"/>
</svg>
