<svg xmlns="http://www.w3.org/2000/svg" width="72px" height="72px" viewBox="0 0 72 72">
<path fill="#F8485E" d="M28.349,72c-0.173,0-0.349-0.033-0.517-0.104c-0.571-0.235-0.908-0.832-0.818-1.443L31.698,38.7H12.15
c-0.427,0-0.828-0.202-1.083-0.545c-0.255-0.341-0.333-0.784-0.21-1.193l10.8-36C21.829,0.391,22.354,0,22.95,0H48.15
c0.464,0,0.896,0.239,1.144,0.633c0.246,0.394,0.274,0.886,0.07,1.304L37.252,27H59.85c0.51,0,0.978,0.288,1.206,0.745
c0.23,0.456,0.182,1.002-0.123,1.411l-31.5,42.301C29.172,71.807,28.767,72,28.349,72z M13.964,36h19.297
c0.392,0,0.766,0.17,1.022,0.468c0.256,0.297,0.371,0.69,0.314,1.079l-4.13,28L57.162,29.7H35.1c-0.465,0-0.896-0.239-1.144-0.633
c-0.247-0.394-0.274-0.886-0.072-1.305L45.998,2.7H23.955L13.964,36z"/>
</svg>
