<svg xmlns="http://www.w3.org/2000/svg" width="72px" height="72px" viewBox="0 0 72 72">
<path fill="#f8485e" d="M60.5,0h-49C5.16,0,0,5.16,0,11.5v49C0,66.84,5.16,72,11.5,72h49C66.84,72,72,66.84,72,60.5v-49
C72,5.16,66.84,0,60.5,0z M69,60.5c0,4.69-3.81,8.5-8.5,8.5h-49C6.81,69,3,65.19,3,60.5v-49C3,6.81,6.81,3,11.5,3h49
c4.69,0,8.5,3.81,8.5,8.5V60.5z"/>
<path fill="#f8485e" d="M54,7H18c-0.83,0-1.5,0.67-1.5,1.5v19c0,0.83,0.67,1.5,1.5,1.5h36c0.83,0,1.5-0.67,1.5-1.5v-19
C55.5,7.67,54.83,7,54,7z M52.5,10v6.9c-4.58-2.81-10.42-4.4-16.5-4.4c-6.08,0-11.92,1.59-16.5,4.4V10H52.5z M37.5,26v-7
c0-0.83-0.67-1.5-1.5-1.5s-1.5,0.67-1.5,1.5v7h-15v-5.48c0.34-0.25,0.67-0.51,1.03-0.74l1.79,3.27c0.27,0.5,0.79,0.78,1.32,0.78
c0.24,0,0.49-0.06,0.72-0.18c0.73-0.4,0.99-1.31,0.6-2.04l-1.8-3.3c1.45-0.7,3.01-1.27,4.64-1.72l1.05,3.34
c0.2,0.64,0.79,1.05,1.43,1.05c0.15,0,0.3-0.02,0.45-0.07c0.79-0.25,1.23-1.09,0.98-1.88l-0.97-3.09c1.71-0.29,3.47-0.45,5.26-0.45
c1.79,0,3.55,0.16,5.26,0.45l-0.97,3.09c-0.25,0.79,0.19,1.63,0.98,1.88c0.15,0.05,0.3,0.07,0.45,0.07c0.64,0,1.23-0.41,1.43-1.05
l1.05-3.34c1.64,0.45,3.19,1.02,4.64,1.72l-1.8,3.3c-0.4,0.73-0.13,1.64,0.6,2.04c0.23,0.12,0.47,0.18,0.72,0.18
c0.53,0,1.04-0.28,1.32-0.78l1.79-3.27c0.36,0.24,0.69,0.49,1.03,0.74V26H37.5z"/>
</svg>
