<svg xmlns="http://www.w3.org/2000/svg" width="72px" height="72px" viewBox="0 0 72 72">
<path fill="#F8485E" d="M71.819,28.35l-5.841-10.116c-0.179-0.31-0.474-0.536-0.817-0.628c-0.35-0.093-0.714-0.045-1.023,0.135
L45.005,28.789c0,0.001-0.002,0.001-0.002,0.001s0,0.001-0.002,0.001L8.89,49.645c-0.645,0.372-0.865,1.197-0.493,1.842
l5.841,10.115c0.179,0.31,0.473,0.535,0.818,0.629c0.114,0.029,0.232,0.045,0.349,0.045c0.234,0,0.468-0.061,0.674-0.181
L71.326,30.19C71.971,29.818,72.191,28.995,71.819,28.35z M15.897,59.087l-4.493-7.781l33.774-19.504l4.475,7.792L15.897,59.087z
M51.986,38.246l-4.474-7.792l16.806-9.706l4.493,7.782L51.986,38.246z"/>
<path fill="#F8485E" d="M11.228,63.132c-0.465,0-0.918-0.242-1.168-0.674l-4.493-7.781c-0.372-0.645-0.152-1.469,0.493-1.841
c0.644-0.372,1.469-0.153,1.841,0.493l4.493,7.781c0.372,0.645,0.152,1.469-0.493,1.841C11.689,63.074,11.457,63.132,11.228,63.132z"/>
<path fill="#F8485E" d="M3.289,42.17c-0.304,0-0.608-0.102-0.86-0.311c-0.573-0.476-0.652-1.324-0.177-1.898
c0.146-0.179,3.631-4.566-0.044-9.511c-4.007-5.39-1.679-10.327,0.111-12.185c0.516-0.537,1.372-0.55,1.906-0.035
c0.534,0.514,0.552,1.363,0.042,1.899l0,0c-0.146,0.155-3.516,3.842,0.105,8.713c3.967,5.336,1.705,10.733-0.044,12.842
C4.06,42.006,3.675,42.17,3.289,42.17z"/>
<path fill="#F8485E" d="M10.477,33.185c-0.304,0-0.608-0.102-0.86-0.311c-0.573-0.476-0.652-1.326-0.177-1.898
c0.147-0.18,3.631-4.566-0.044-9.511C5.389,16.075,7.717,11.137,9.507,9.28c0.517-0.535,1.372-0.549,1.906-0.035
c0.534,0.514,0.552,1.364,0.042,1.9l0,0c-0.146,0.154-3.516,3.842,0.105,8.712c3.967,5.336,1.705,10.733-0.045,12.841
C11.249,33.019,10.864,33.185,10.477,33.185z"/>
</svg>
